<svg width="20" height="27" viewBox="0 0 20 27" fill="none" xmlns="http://www.w3.org/2000/svg">
<path d="M13.1783 0H19.7669V13.1783H13.1783C9.54225 13.1783 6.58984 10.2259 6.58984 6.58978C6.58856 2.95241 9.54225 0 13.1783 0Z" fill="#181818"/>
<path d="M6.5885 13.1783C2.94985 13.1783 0 10.2284 0 6.5885C0 2.94985 2.94985 0 6.5885 0V13.1783Z" fill="#181818"/>
<path d="M13.1777 13.1771C16.8164 13.1771 19.7662 16.1269 19.7662 19.7656C19.7662 23.4042 16.8164 26.3541 13.1777 26.3541V13.1758V13.1771Z" fill="#181818"/>
<path d="M0 13.1771H6.5885C10.2246 13.1771 13.177 16.1295 13.177 19.7656C13.177 23.4017 10.2246 26.3541 6.5885 26.3541H0V13.1758V13.1771Z" fill="#181818"/>
</svg>
