<svg width="331" height="78" viewBox="0 0 331 78" fill="none" xmlns="http://www.w3.org/2000/svg">
<path d="M82.9853 46.7422C83.2059 49.8609 84.4548 52.3551 86.7396 54.221C89.0244 56.0907 91.9224 57.0218 95.4375 57.0218C98.601 57.0218 101.159 56.33 103.114 54.9465C105.07 53.5629 106.046 51.6408 106.046 49.1803C106.046 47.3779 105.508 45.9532 104.431 44.8987C103.354 43.8442 101.97 43.0664 100.28 42.5578C98.5898 42.053 96.2938 41.5594 93.3958 41.077C88.7851 40.2843 85.113 38.9904 82.3907 37.188C79.6647 35.3856 78.3035 32.4652 78.3035 28.4229C78.3035 25.8314 78.9617 23.5355 80.2817 21.5349C81.5979 19.538 83.4564 17.9862 85.8497 16.8905C88.2429 15.7911 90.9764 15.2415 94.0539 15.2415C97.3034 15.2415 100.183 15.836 102.684 17.0214C105.186 18.2068 107.164 19.8671 108.615 21.9948C110.066 24.1263 110.877 26.5756 111.053 29.3428H105.388C105.037 26.6653 103.829 24.5114 101.765 22.8848C99.7004 21.2582 97.1277 20.4467 94.0539 20.4467C90.9801 20.4467 88.542 21.1161 86.7396 22.4548C84.9372 23.7935 84.0398 25.6744 84.0398 28.0901C84.0398 29.8476 84.567 31.2199 85.6215 32.2071C86.6761 33.1943 88.0372 33.9422 89.7087 34.447C91.3765 34.9519 93.6613 35.4455 96.563 35.9278C101.177 36.7169 104.865 38.0257 107.632 39.8467C110.399 41.6716 111.782 44.6033 111.782 48.6456C111.782 51.2818 111.091 53.6302 109.707 55.6981C108.323 57.7622 106.39 59.3664 103.907 60.507C101.424 61.6512 98.5786 62.2196 95.3739 62.2196C91.7729 62.2196 88.6318 61.5727 85.9506 60.2751C83.2695 58.9813 81.1941 57.1564 79.7245 54.8044C78.2512 52.456 77.4509 49.7636 77.3201 46.731H82.9853V46.7422Z" fill="#080808"/>
<path d="M121.434 60.0545C118.906 58.6036 116.943 56.5843 115.537 53.9929C114.131 51.4015 113.428 48.4137 113.428 45.0296C113.428 41.6454 114.131 38.6613 115.537 36.0662C116.943 33.4748 118.906 31.4555 121.434 30.0046C123.958 28.5537 126.848 27.832 130.098 27.832C133.348 27.832 136.238 28.5575 138.762 30.0046C141.286 31.4555 143.253 33.4748 144.659 36.0662C146.065 38.6576 146.768 41.6454 146.768 45.0296C146.768 48.4137 146.065 51.4015 144.659 53.9929C143.253 56.5843 141.286 58.6036 138.762 60.0545C136.234 61.5054 133.348 62.2308 130.098 62.2308C126.848 62.2308 123.958 61.5054 121.434 60.0545ZM135.931 55.8364C137.622 54.7819 138.93 53.3123 139.85 51.4202C140.774 49.5318 141.234 47.4003 141.234 45.0296C141.234 42.6588 140.774 40.5273 139.85 38.6389C138.927 36.7505 137.622 35.2772 135.931 34.2227C134.241 33.1682 132.297 32.6409 130.098 32.6409C127.899 32.6409 125.958 33.1682 124.265 34.2227C122.574 35.2772 121.266 36.7505 120.346 38.6389C119.422 40.5273 118.962 42.6588 118.962 45.0296C118.962 47.4003 119.422 49.5318 120.346 51.4202C121.269 53.3086 122.574 54.7819 124.265 55.8364C125.955 56.8909 127.899 57.4182 130.098 57.4182C132.297 57.4182 134.238 56.8909 135.931 55.8364Z" fill="#080808"/>
<path d="M175.334 31.5229C177.817 33.9834 179.058 37.85 179.058 43.1188V61.8345H173.655V43.4516C173.655 39.9814 172.873 37.334 171.314 35.5129C169.755 33.6918 167.503 32.7794 164.56 32.7794C161.397 32.7794 158.914 33.8787 157.115 36.0738C155.313 38.2725 154.412 41.2566 154.412 45.0371V61.842H149.008V28.236H153.686L154.412 32.7831C156.958 29.4887 160.649 27.8396 165.48 27.8396C169.568 27.8396 172.851 29.0699 175.33 31.5304L175.334 31.5229Z" fill="#080808"/>
<path d="M189.169 60.0545C186.642 58.6036 184.678 56.5843 183.272 53.9929C181.866 51.4015 181.163 48.4137 181.163 45.0296C181.163 41.6454 181.866 38.6613 183.272 36.0662C184.678 33.4748 186.642 31.4555 189.169 30.0046C191.693 28.5537 194.584 27.832 197.834 27.832C201.083 27.832 203.974 28.5575 206.498 30.0046C209.022 31.4555 210.989 33.4748 212.395 36.0662C213.801 38.6576 214.504 41.6454 214.504 45.0296C214.504 48.4137 213.801 51.4015 212.395 53.9929C210.989 56.5843 209.022 58.6036 206.498 60.0545C203.97 61.5054 201.083 62.2308 197.834 62.2308C194.584 62.2308 191.693 61.5054 189.169 60.0545ZM203.667 55.8364C205.357 54.7819 206.666 53.3123 207.586 51.4202C208.51 49.5318 208.97 47.4003 208.97 45.0296C208.97 42.6588 208.51 40.5273 207.586 38.6389C206.662 36.7505 205.357 35.2772 203.667 34.2227C201.977 33.1682 200.032 32.6409 197.834 32.6409C195.635 32.6409 193.694 33.1682 192.004 34.2227C190.314 35.2772 189.005 36.7505 188.081 38.6389C187.158 40.5273 186.698 42.6588 186.698 45.0296C186.698 47.4003 187.158 49.5318 188.081 51.4202C189.005 53.3086 190.31 54.7819 192.004 55.8364C193.694 56.8909 195.639 57.4182 197.834 57.4182C200.029 57.4182 201.973 56.8909 203.667 55.8364Z" fill="#080808"/>
<path d="M242.445 59.0336C239.853 61.1651 236.559 62.2308 232.562 62.2308C229.308 62.2308 226.455 61.5054 223.995 60.0545C221.534 58.6036 219.623 56.5731 218.262 53.9593C216.901 51.3454 216.22 48.3464 216.22 44.966C216.22 41.5856 216.912 38.5978 218.296 36.0026C219.679 33.4112 221.624 31.4032 224.129 29.9747C226.635 28.5463 229.51 27.832 232.76 27.832C236.712 27.832 239.977 28.8865 242.546 30.9956C245.115 33.1046 246.73 36.0026 247.388 39.6934H241.918C241.39 37.5433 240.291 35.8269 238.623 34.5555C236.952 33.2803 234.932 32.6446 232.562 32.6446C229.353 32.6446 226.751 33.7889 224.754 36.0699C222.753 38.3547 221.755 41.3201 221.755 44.966C221.755 48.6119 222.753 51.6558 224.754 53.9593C226.751 56.2665 229.353 57.4182 232.562 57.4182C235.022 57.4182 237.086 56.7825 238.754 55.5074C240.422 54.2322 241.499 52.4747 241.981 50.2348H247.385C246.682 53.9705 245.032 56.9022 242.441 59.0336H242.445Z" fill="#080808"/>
<path d="M251.176 36.0026C252.515 33.4112 254.392 31.4032 256.811 29.9747C259.227 28.5463 261.994 27.832 265.113 27.832C268.232 27.832 270.913 28.4677 273.284 29.7429C275.654 31.018 277.524 32.8615 278.885 35.2772C280.246 37.6928 280.972 40.5273 281.062 43.7769C281.062 44.2592 281.017 45.0296 280.931 46.0841H254.837V46.544C254.923 49.8384 255.936 52.4747 257.87 54.4529C259.803 56.431 262.327 57.4182 265.446 57.4182C267.861 57.4182 269.914 56.8162 271.608 55.6046C273.299 54.3968 274.432 52.7178 275.004 50.5639H280.474C279.816 53.9892 278.167 56.79 275.531 58.9663C272.895 61.1389 269.668 62.2271 265.846 62.2271C262.507 62.2271 259.586 61.5129 257.081 60.0844C254.575 58.6559 252.631 56.6367 251.247 54.0228C249.864 51.409 249.172 48.41 249.172 45.0296C249.172 41.6491 249.841 38.594 251.184 36.0026H251.176ZM275.46 41.6043C275.194 38.7474 274.132 36.5299 272.263 34.9481C270.397 33.3664 268.033 32.5773 265.18 32.5773C262.634 32.5773 260.39 33.4112 258.461 35.0827C256.527 36.7543 255.428 38.9268 255.166 41.608H275.46V41.6043Z" fill="#080808"/>
<path d="M315.06 56.891V61.8345H312.095C309.941 61.8345 308.404 61.397 307.484 60.5182C306.561 59.6395 306.078 58.3419 306.033 56.6293C303.442 60.3649 299.684 62.2309 294.767 62.2309C291.031 62.2309 288.036 61.3521 285.773 59.5946C283.511 57.8371 282.382 55.4439 282.382 52.4112C282.382 49.0308 283.533 46.4394 285.841 44.637C288.148 42.8346 291.495 41.9334 295.888 41.9334H305.772V39.6262C305.772 37.4312 305.035 35.7148 303.565 34.4845C302.092 33.2542 300.039 32.641 297.403 32.641C295.073 32.641 293.151 33.157 291.637 34.1891C290.122 35.2212 289.187 36.5935 288.836 38.3062H283.432C283.829 35.0118 285.287 32.4428 287.815 30.5955C290.339 28.752 293.626 27.8284 297.665 27.8284C301.969 27.8284 305.297 28.8717 307.649 30.9583C309.997 33.0448 311.175 36.0438 311.175 39.9515V54.4492C311.175 56.0758 311.923 56.8873 313.415 56.8873H315.064L315.06 56.891ZM305.772 46.4805H295.361C290.354 46.4805 287.849 48.3502 287.849 52.0822C287.849 53.7537 288.507 55.0924 289.827 56.102C291.143 57.1116 292.923 57.6165 295.163 57.6165C298.457 57.6165 301.049 56.7489 302.937 55.0138C304.825 53.2788 305.772 50.9828 305.772 48.1259V46.4768V46.4805Z" fill="#080808"/>
<path d="M315.053 19.209C315.756 17.9937 316.717 17.0401 317.936 16.3483C319.151 15.6565 320.505 15.3125 321.989 15.3125C323.474 15.3125 324.865 15.6565 326.08 16.3483C327.296 17.0401 328.257 17.9862 328.963 19.1903C329.666 20.3944 330.022 21.7405 330.022 23.2251C330.022 24.7096 329.67 26.0483 328.963 27.2412C328.26 28.4341 327.299 29.3727 326.08 30.0645C324.865 30.7562 323.5 31.1003 321.989 31.1003C320.479 31.1003 319.151 30.7562 317.936 30.0645C316.721 29.3727 315.76 28.4303 315.053 27.2412C314.35 26.0521 313.995 24.7246 313.995 23.2662C313.995 21.8078 314.346 20.4317 315.053 19.2127V19.209ZM327.479 19.9568C326.94 18.9846 326.192 18.2218 325.231 17.6721C324.27 17.1224 323.19 16.8457 321.986 16.8457C320.782 16.8457 319.738 17.1224 318.777 17.6721C317.816 18.2218 317.068 18.9846 316.53 19.9568C315.991 20.9291 315.722 22.0322 315.722 23.2625C315.722 24.4927 315.991 25.5473 316.53 26.5083C317.068 27.4693 317.816 28.2172 318.777 28.7557C319.738 29.2941 320.808 29.5634 321.986 29.5634C323.164 29.5634 324.27 29.2867 325.231 28.737C326.192 28.1873 326.94 27.4319 327.479 26.4709C328.017 25.5099 328.287 24.4292 328.287 23.2251C328.287 22.021 328.017 20.9328 327.479 19.9606V19.9568ZM322.33 18.8462C323.354 18.8462 324.173 19.1043 324.786 19.6128C325.4 20.1251 325.71 20.7907 325.71 21.6097C325.71 22.2491 325.531 22.7876 325.172 23.2213C324.813 23.6589 324.315 23.9655 323.672 24.145L325.747 27.6039H323.867L322.023 24.4927H320.677V27.6039H318.987V18.8462H322.33ZM320.681 23.0718H322.255C322.741 23.0718 323.145 22.9446 323.466 22.6866C323.788 22.4323 323.945 22.0733 323.945 21.6097C323.945 21.1759 323.792 20.8431 323.485 20.6112C323.178 20.3794 322.767 20.2672 322.255 20.2672H320.681V23.0718Z" fill="#080808"/>
<path d="M38.565 0.250244H57.808V38.7399H38.565C27.9451 38.7399 19.322 30.1169 19.322 19.497C19.3183 8.87331 27.9451 0.250244 38.565 0.250244Z" fill="#080808"/>
<path d="M19.3182 38.7399C8.69078 38.7399 0.0751953 30.1244 0.0751953 19.4932C0.0751953 8.86583 8.69078 0.250244 19.3182 0.250244V38.7399Z" fill="#080808"/>
<path d="M38.5649 38.7398C49.1923 38.7398 57.8079 47.3554 57.8079 57.9828C57.8079 68.6102 49.1923 77.2258 38.5649 77.2258V38.7361V38.7398Z" fill="#080808"/>
<path d="M0.0751953 38.7398H19.3182C29.9381 38.7398 38.5612 47.3629 38.5612 57.9828C38.5612 68.6027 29.9381 77.2258 19.3182 77.2258H0.0751953V38.7361V38.7398Z" fill="#080808"/>
</svg>
